 <svg version="1.1" xmlns="http://www.w3.org/2000/svg" xmlns:xlink="http://www.w3.org/1999/xlink" xmlns:a="http://ns.adobe.com/AdobeSVGViewerExtensions/3.0/"x="0px" y="0px" width="512px" height="512px" viewBox="0 0 512 512" style="enable-background:new 0 0 512 512;"xml:space="preserve"> <style type="text/css"> .st0{fill:#5695D4;} </style> <defs> </defs> <path class="st0" d="M285.2,256L505.9,35.3c8.1-8.1,8.1-21.2,0-29.2c-8.1-8.1-21.2-8.1-29.2,0L256,226.8L35.3,6.1 C27.2-2,14.1-2,6.1,6.1C-2,14.1-2,27.2,6.1,35.3L226.8,256L6.1,476.7c-8.1,8.1-8.1,21.2,0,29.2c4,4,9.3,6.1,14.6,6.1 c5.3,0,10.6-2,14.6-6.1L256,285.2l220.7,220.7c4,4,9.3,6.1,14.6,6.1c5.3,0,10.6-2,14.6-6.1c8.1-8.1,8.1-21.2,0-29.3L285.2,256z"/> </svg>