<?xml version="1.0" encoding="utf-8"?>
<!-- Generator: Adobe Illustrator 21.1.0, SVG Export Plug-In . SVG Version: 6.00 Build 0)  -->
<svg version="1.1" id="Layer_1" xmlns="http://www.w3.org/2000/svg" xmlns:xlink="http://www.w3.org/1999/xlink" x="0px" y="0px"
	 viewBox="0 0 16 16" style="enable-background:new 0 0 16 16;" xml:space="preserve">
<style type="text/css">
	.st0{fill:#FF0000;}
	.st1{fill:#3D5A98;}
	.st2{fill:#1DA1F2;}
	.st3{display:none;fill:#1DA1F2;}
	.st4{display:none;}
	.st5{display:inline;fill:#FF0000;}
	.st6{fill:#0077B5;}
	.st7{fill-rule:evenodd;clip-rule:evenodd;fill:#5181B8;}
	.st8{fill:#030303;}
	.st9{fill:#D34836;}
</style>
<path id="White_1_" class="st1" d="M14.22731,1H1.77269C1.34588,1,1,1.34588,1,1.77269v12.45462C1,14.65402,1.34588,15,1.77269,15
	h6.70514V9.57847H6.65338V7.46559h1.82446V5.9074c0-1.80827,1.10443-2.7929,2.71752-2.7929
	c0.77269,0,1.43678,0.05753,1.63031,0.08324v1.88974L11.7069,5.08799c-0.87729,0-1.04716,0.41688-1.04716,1.02861v1.34898h2.09226
	l-0.27242,2.11288h-1.81984V15h3.56756C14.65402,15,15,14.65402,15,14.22731V1.77269C15,1.34588,14.65402,1,14.22731,1z"/>
</svg>
